<svg id="Layer_1" data-name="Layer 1" xmlns="http://www.w3.org/2000/svg" xmlns:xlink="http://www.w3.org/1999/xlink" viewBox="0 0 911.68 637.63"><defs><style>.cls-1{fill:url(#linear-gradient);}.cls-2{fill:#2a3f55;}.cls-3{fill:#8fa2d3;}.cls-4{fill:#b3c3e5;}.cls-5{fill:#091a2f;}.cls-6{fill:url(#linear-gradient-2);}.cls-7{fill:none;stroke:#fff;stroke-linecap:round;stroke-linejoin:round;stroke-width:5px;}.cls-8{fill:#aadee9;}.cls-9{fill:url(#linear-gradient-3);}</style><linearGradient id="linear-gradient" x1="451.31" y1="-68.08" x2="445.88" y2="577.71" gradientUnits="userSpaceOnUse"><stop offset="0.28" stop-color="#8abbe5"/><stop offset="0.99" stop-color="#aeddf7"/></linearGradient><linearGradient id="linear-gradient-2" x1="-27.28" y1="472.43" x2="884.4" y2="472.43" gradientUnits="userSpaceOnUse"><stop offset="0.28" stop-color="#2b5f56"/><stop offset="0.99" stop-color="#2b5f56"/></linearGradient><linearGradient id="linear-gradient-3" x1="308.76" y1="257.76" x2="308.76" y2="257.76" xlink:href="#linear-gradient"/></defs><rect class="cls-1" x="27.28" width="841.89" height="597" rx="21.54"/><polygon class="cls-2" points="410.92 377.27 295.72 377.27 270.16 166.68 353.32 190.44 410.92 227.88 410.92 377.27"/><polygon class="cls-3" points="410.92 395.64 322.72 395.64 322.72 203.04 410.92 227.88 410.92 395.64"/><polygon class="cls-4" points="322.72 352.43 212.56 353.51 212.56 204.12 270.16 166.68 322.72 203.04 322.72 352.43"/><polygon class="cls-5" points="409.46 315.57 333.56 296.78 334.14 263.66 410.05 282.45 409.46 315.57"/><path class="cls-2" d="M404.28,305,327.84,285.6s-8.46-6.06-12.51-11.37c-2.42-3.16-9-11.29-9-11.29l76.44,19.35s4.82,6.8,7,9.19C392.87,294.85,404.28,305,404.28,305Z" transform="translate(27.28)"/><path class="cls-2" d="M857.19,389.69V591.16a30.53,30.53,0,0,1-30.56,30.54l-796.11-.42A30.54,30.54,0,0,1,0,590.74V475a30.54,30.54,0,0,1,28.27-30.45c207-15.48,338.88-38.64,438.83-58.44,94.6-18.76,160.65-34.49,234.87-37.85a498.43,498.43,0,0,1,131.5,11.67A30.52,30.52,0,0,1,857.19,389.69Z" transform="translate(27.28)"/><path class="cls-6" d="M884.4,415.33V621.38a16.26,16.26,0,0,1-16.26,16.25L-11,637.16a16.25,16.25,0,0,1-16.24-16.25V335.35a16.24,16.24,0,0,1,12.34-15.78c168.09-41.28,317.16,31.09,484.45,68.76,64.55,14.53,131.81,23.9,203.92,19.58,102.41-6.14,161.09-8.39,194.52-8.83A16.24,16.24,0,0,1,884.4,415.33Z" transform="translate(27.28)"/><path id="path473" class="cls-7" d="M549.65,45.92l6.46,13.63L499.64,86.31l28.61,60.37,56.47-26.76L561.65,71.24,516.86,92.46l17.53,37,33.11-15.69L561,100.14" transform="translate(27.28)"/><circle class="cls-8" cx="443.17" cy="105.77" r="40.8"/><circle class="cls-8" cx="489.2" cy="122.77" r="23.8"/><circle class="cls-8" cx="402.37" cy="122.77" r="23.8"/><circle class="cls-8" cx="523.85" cy="130.75" r="15.82"/><polygon class="cls-8" points="402.37 105.77 402.37 146.57 523.85 146.57 523.85 130.75 402.37 105.77"/><circle class="cls-8" cx="534.58" cy="121.59" r="40.8"/><circle class="cls-8" cx="580.61" cy="138.59" r="23.8"/><circle class="cls-8" cx="493.78" cy="138.59" r="23.8"/><circle class="cls-8" cx="615.26" cy="146.57" r="15.82"/><polygon class="cls-8" points="493.78 121.59 493.78 162.39 615.26 162.39 615.26 146.57 493.78 121.59"/><path class="cls-9" d="M308.76,257.76" transform="translate(27.28)"/></svg>